<svg width="24" height="24" viewBox="0 0 24 24" fill="none" xmlns="http://www.w3.org/2000/svg">
<g clip-path="url(#clip0_119_29576)">
<path d="M13.5 23.9999H1.5C0.673 23.9999 0 23.3269 0 22.4999V1.6809C0 1.2389 0.193 0.821897 0.53 0.535897C0.867 0.249897 1.312 0.125897 1.746 0.200897L12.739 1.8669C13.473 1.9879 14 2.6099 14 3.3469V23.4999C14 23.7759 13.776 23.9999 13.5 23.9999ZM1.498 1.1809C1.379 1.1809 1.269 1.2219 1.177 1.2989C1.063 1.3959 1 1.5309 1 1.6809V22.4999C1 22.7759 1.225 22.9999 1.5 22.9999H13V3.3469C13 3.1009 12.824 2.8939 12.582 2.8539L1.589 1.1879C1.559 1.1829 1.528 1.1809 1.498 1.1809Z" fill="white"/>
<path d="M22.5 24.0001H13.5C13.224 24.0001 13 23.7761 13 23.5001V9.50008C13 9.35108 13.067 9.20808 13.183 9.11408C13.298 9.01908 13.449 8.97908 13.598 9.01008L22.815 10.8361C23.517 10.9911 24 11.5941 24 12.3021V22.5001C24 23.3271 23.327 24.0001 22.5 24.0001ZM14 23.0001H22.5C22.775 23.0001 23 22.7761 23 22.5001V12.3021C23 12.0661 22.839 11.8651 22.608 11.8141L14 10.1091V23.0001Z" fill="white"/>
<path d="M9.5 24H4.5C4.224 24 4 23.776 4 23.5V18.5C4 17.673 4.673 17 5.5 17H8.5C9.327 17 10 17.673 10 18.5V23.5C10 23.776 9.776 24 9.5 24ZM5 23H9V18.5C9 18.224 8.775 18 8.5 18H5.5C5.225 18 5 18.224 5 18.5V23Z" fill="white"/>
<path d="M5.5 6H3.5C3.224 6 3 5.776 3 5.5C3 5.224 3.224 5 3.5 5H5.5C5.776 5 6 5.224 6 5.5C6 5.776 5.776 6 5.5 6Z" fill="white"/>
<path d="M10.5 6H8.5C8.224 6 8 5.776 8 5.5C8 5.224 8.224 5 8.5 5H10.5C10.776 5 11 5.224 11 5.5C11 5.776 10.776 6 10.5 6Z" fill="white"/>
<path d="M5.5 9H3.5C3.224 9 3 8.776 3 8.5C3 8.224 3.224 8 3.5 8H5.5C5.776 8 6 8.224 6 8.5C6 8.776 5.776 9 5.5 9Z" fill="white"/>
<path d="M10.5 9H8.5C8.224 9 8 8.776 8 8.5C8 8.224 8.224 8 8.5 8H10.5C10.776 8 11 8.224 11 8.5C11 8.776 10.776 9 10.5 9Z" fill="white"/>
<path d="M5.5 12H3.5C3.224 12 3 11.776 3 11.5C3 11.224 3.224 11 3.5 11H5.5C5.776 11 6 11.224 6 11.5C6 11.776 5.776 12 5.5 12Z" fill="white"/>
<path d="M10.5 12H8.5C8.224 12 8 11.776 8 11.5C8 11.224 8.224 11 8.5 11H10.5C10.776 11 11 11.224 11 11.5C11 11.776 10.776 12 10.5 12Z" fill="white"/>
<path d="M5.5 15H3.5C3.224 15 3 14.776 3 14.5C3 14.224 3.224 14 3.5 14H5.5C5.776 14 6 14.224 6 14.5C6 14.776 5.776 15 5.5 15Z" fill="white"/>
<path d="M10.5 15H8.5C8.224 15 8 14.776 8 14.5C8 14.224 8.224 14 8.5 14H10.5C10.776 14 11 14.224 11 14.5C11 14.776 10.776 15 10.5 15Z" fill="white"/>
<path d="M19.5 15H17.5C17.224 15 17 14.776 17 14.5C17 14.224 17.224 14 17.5 14H19.5C19.776 14 20 14.224 20 14.5C20 14.776 19.776 15 19.5 15Z" fill="white"/>
<path d="M19.5 18H17.5C17.224 18 17 17.776 17 17.5C17 17.224 17.224 17 17.5 17H19.5C19.776 17 20 17.224 20 17.5C20 17.776 19.776 18 19.5 18Z" fill="white"/>
<path d="M19.5 21H17.5C17.224 21 17 20.776 17 20.5C17 20.224 17.224 20 17.5 20H19.5C19.776 20 20 20.224 20 20.5C20 20.776 19.776 21 19.5 21Z" fill="white"/>
</g>
<defs>
<clipPath id="clip0_119_29576">
<rect width="24" height="24" fill="white"/>
</clipPath>
</defs>
</svg>
