<svg width="200" height="137" viewBox="0 0 200 137" fill="none" xmlns="http://www.w3.org/2000/svg">
<g clip-path="url(#clip0_29_2355)">
<rect width="200" height="137" fill="white"/>
<g clip-path="url(#clip1_29_2355)">
<path d="M145 -37H-55V163H145V-37Z" fill="black"/>
<path d="M345 -37H145V163H345V-37Z" fill="white"/>
<mask id="mask0_29_2355" style="mask-type:luminance" maskUnits="userSpaceOnUse" x="-55" y="-37" width="200" height="200">
<path d="M145 -37H-55V163H145V-37Z" fill="white"/>
</mask>
<g mask="url(#mask0_29_2355)">
<path d="M28.9062 41.9453V28H94.6094V41.9453H70.1172V108H53.3984V41.9453H28.9062ZM172.363 56.0078H155.254C154.941 53.7943 154.303 51.8281 153.34 50.1094C152.376 48.3646 151.139 46.8802 149.629 45.6562C148.118 44.4323 146.374 43.4948 144.395 42.8437C142.441 42.1927 140.319 41.8672 138.027 41.8672C133.887 41.8672 130.28 42.8958 127.207 44.9531C124.134 46.9844 121.751 49.9531 120.059 53.8594C118.366 57.7396 117.52 62.4531 117.52 68C117.52 73.7031 118.366 78.4948 120.059 82.375C121.777 86.2552 124.173 89.1849 127.246 91.1641C130.319 93.1432 133.874 94.1328 137.91 94.1328C140.176 94.1328 142.272 93.8333 144.199 93.2344C146.152 92.6354 147.884 91.763 149.395 90.6172C150.905 89.4453 152.155 88.026 153.145 86.3594C154.16 84.6927 154.863 82.7917 155.254 80.6562L172.363 80.7344C171.921 84.4062 170.814 87.9479 169.043 91.3594C167.298 94.7448 164.941 97.7786 161.973 100.461C159.03 103.117 155.514 105.227 151.426 106.789C147.363 108.326 142.767 109.094 137.637 109.094C130.501 109.094 124.121 107.479 118.496 104.25C112.897 101.021 108.47 96.3464 105.215 90.2266C101.986 84.1068 100.371 76.6979 100.371 68C100.371 59.276 102.012 51.8542 105.293 45.7344C108.574 39.6146 113.027 34.9531 118.652 31.75C124.277 28.5208 130.605 26.9062 137.637 26.9062C142.272 26.9062 146.569 27.5573 150.527 28.8594C154.512 30.1615 158.04 32.0625 161.113 34.5625C164.186 37.0365 166.686 40.0703 168.613 43.6641C170.566 47.2578 171.816 51.3724 172.363 56.0078Z" fill="white"/>
</g>
<mask id="mask1_29_2355" style="mask-type:luminance" maskUnits="userSpaceOnUse" x="145" y="-37" width="200" height="200">
<path d="M345 -37H145V163H345V-37Z" fill="white"/>
</mask>
<g mask="url(#mask1_29_2355)">
<path d="M28.9062 41.9453V28H94.6094V41.9453H70.1172V108H53.3984V41.9453H28.9062ZM172.363 56.0078H155.254C154.941 53.7943 154.303 51.8281 153.34 50.1094C152.376 48.3646 151.139 46.8802 149.629 45.6562C148.118 44.4323 146.374 43.4948 144.395 42.8437C142.441 42.1927 140.319 41.8672 138.027 41.8672C133.887 41.8672 130.28 42.8958 127.207 44.9531C124.134 46.9844 121.751 49.9531 120.059 53.8594C118.366 57.7396 117.52 62.4531 117.52 68C117.52 73.7031 118.366 78.4948 120.059 82.375C121.777 86.2552 124.173 89.1849 127.246 91.1641C130.319 93.1432 133.874 94.1328 137.91 94.1328C140.176 94.1328 142.272 93.8333 144.199 93.2344C146.152 92.6354 147.884 91.763 149.395 90.6172C150.905 89.4453 152.155 88.026 153.145 86.3594C154.16 84.6927 154.863 82.7917 155.254 80.6562L172.363 80.7344C171.921 84.4062 170.814 87.9479 169.043 91.3594C167.298 94.7448 164.941 97.7786 161.973 100.461C159.03 103.117 155.514 105.227 151.426 106.789C147.363 108.326 142.767 109.094 137.637 109.094C130.501 109.094 124.121 107.479 118.496 104.25C112.897 101.021 108.47 96.3464 105.215 90.2266C101.986 84.1068 100.371 76.6979 100.371 68C100.371 59.276 102.012 51.8542 105.293 45.7344C108.574 39.6146 113.027 34.9531 118.652 31.75C124.277 28.5208 130.605 26.9062 137.637 26.9062C142.272 26.9062 146.569 27.5573 150.527 28.8594C154.512 30.1615 158.04 32.0625 161.113 34.5625C164.186 37.0365 166.686 40.0703 168.613 43.6641C170.566 47.2578 171.816 51.3724 172.363 56.0078Z" fill="black"/>
</g>
<path opacity="0.4" d="M145 -37V163" stroke="#888888" stroke-width="0.5"/>
<path d="M151 57H139V69H151V57Z" fill="white"/>
<mask id="mask2_29_2355" style="mask-type:luminance" maskUnits="userSpaceOnUse" x="145" y="-37" width="200" height="179">
<path d="M345 -37H145V142H245H345V-37Z" fill="white"/>
</mask>
<g mask="url(#mask2_29_2355)">
<path d="M151 57H139V69H151V57Z" fill="black"/>
</g>
</g>
</g>
<defs>
<clipPath id="clip0_29_2355">
<rect width="200" height="137" fill="white"/>
</clipPath>
<clipPath id="clip1_29_2355">
<rect width="400" height="200" fill="white" transform="translate(-55 -37)"/>
</clipPath>
</defs>
</svg>
