<svg enable-background="new 0 0 64 64" height="64" viewBox="0 0 64 64" width="64" xmlns="http://www.w3.org/2000/svg"><path d="m44.05 0h-24.1c-3.104 0-5.63 2.525-5.63 5.628v52.742c0 3.104 2.525 5.629 5.63 5.629h24.1c3.104 0 5.629-2.525 5.629-5.629v-52.742c0-3.103-2.525-5.628-5.629-5.628zm-27.79 11.384h31.479v39.484h-31.479zm3.69-9.445h24.1c2.035 0 3.689 1.655 3.689 3.689v3.816h-31.479v-3.816c0-2.034 1.655-3.689 3.69-3.689zm24.1 60.122h-24.1c-2.035 0-3.69-1.655-3.69-3.69v-5.563h31.479v5.563c0 2.034-1.654 3.69-3.689 3.69z"/><path d="m32 53.746c-2.034 0-3.688 1.654-3.688 3.688 0 2.033 1.654 3.688 3.688 3.688 2.033 0 3.688-1.654 3.688-3.688s-1.655-3.688-3.688-3.688zm0 5.436c-.964 0-1.749-.784-1.749-1.748s.785-1.749 1.749-1.749 1.748.784 1.748 1.749c0 .964-.784 1.748-1.748 1.748zm-2.848-52.521h5.694c.535 0 .97-.434.97-.97 0-.535-.435-.97-.97-.97h-5.694c-.536 0-.97.435-.97.97.001.536.434.97.97.97z"/></svg>