<svg height="24" viewBox="0 0 24 24" width="24" xmlns="http://www.w3.org/2000/svg"><g id="Page-1" fill="none" fill-rule="evenodd"><g id="acction-outline" fill="#000" fill-rule="nonzero" transform="translate(-360 -216)"><g id="users-user-group-community-forum" transform="translate(360 218)"><path id="Oval-204" d="m8.05069905 4.36140443c-.46738683-.23136592-.99385688-.36140443-1.55069905-.36140443-1.93299662 0-3.5 1.56700338-3.5 3.5s1.56700338 3.5 3.5 3.5c1.62350981 0 2.98884073-1.1053952 3.38442195-2.60461477-.33183018-.20719258-.63109208-.4616772-.88835161-.75401975-.0732978 1.31494371-1.16280054 2.35863452-2.49607034 2.35863452-1.38071187 0-2.5-1.11928813-2.5-2.5s1.11928813-2.5 2.5-2.5c.5782982 0 1.11073551.19635387 1.53427934.52602904-.02261231-.17213686-.03427934-.34772046-.03427934-.52602904 0-.21734983.01733542-.43065076.05069905-.63859557z"/><path id="Oval-204" d="m14.115578 8.39538523c.3955813 1.49921957 1.7609122 2.60461477 3.384422 2.60461477 1.9329966 0 3.5-1.56700338 3.5-3.5s-1.5670034-3.5-3.5-3.5c-.5568422 0-1.0833122.13003851-1.5506991.36140443.0333637.20794481.0506991.42124574.0506991.63859557 0 .17830858-.011667.35389218-.0342793.52602904.4235438-.32967517.9559811-.52602904 1.5342793-.52602904 1.3807119 0 2.5 1.11928813 2.5 2.5s-1.1192881 2.5-2.5 2.5c-1.3332698 0-2.4227725-1.04369081-2.4960703-2.35863452-.2572596.29234255-.5565215.54682717-.8883517.75401975z"/><path id="Combined-Shape" d="m20 18h3.5c.2761424 0 .5-.2238576.5-.5v-1c0-2.4852814-2.0147186-4.5-4.5-4.5h-15c-2.48528137 0-4.5 2.0147186-4.5 4.5v1c0 .2761424.22385763.5.5.5h3.5v-1h-3v-.5c0-1.9329966 1.56700338-3.5 3.5-3.5h1.17133283c.77286306-.6253999 1.75701885-1 2.82866717-1h7c1.0716483 0 2.0558041.3746001 2.8286672 1h1.1713328c1.9329966 0 3.5 1.5670034 3.5 3.5v.5h-3z"/><path id="Oval-204" d="m12 10c-2.76142375 0-5-2.23857625-5-5s2.23857625-5 5-5c2.7614237 0 5 2.23857625 5 5s-2.2385763 5-5 5zm0-1c2.209139 0 4-1.790861 4-4s-1.790861-4-4-4-4 1.790861-4 4 1.790861 4 4 4z"/><path id="Rectangle-794" d="m3 16.5c0-3.0375661 2.46243388-5.5 5.5-5.5h7c3.0375661 0 5.5 2.4624339 5.5 5.5v3c0 .2761424-.2238576.5-.5.5h-17c-.27614237 0-.5-.2238576-.5-.5zm17 0c0-2.4852814-2.0147186-4.5-4.5-4.5h-7c-2.48528137 0-4.5 2.0147186-4.5 4.5v2.5h16z"/></g></g></g></svg>