<svg id="Layer_1" height="512" viewBox="0 0 512 512" width="512" xmlns="http://www.w3.org/2000/svg" data-name="Layer 1"><path d="m337.711 241.3a16 16 0 0 0 -11.461 3.988c-18.739 16.561-43.688 25.682-70.25 25.682s-51.511-9.121-70.25-25.683a16.007 16.007 0 0 0 -11.461-3.988c-78.926 4.274-140.752 63.672-140.752 135.224v107.152c0 15.618 13.363 28.325 29.795 28.325h385.336c16.429 0 29.8-12.707 29.8-28.325v-107.152c-.005-71.552-61.831-130.95-140.757-135.223zm108.752 238.7h-380.926v-103.477c0-52.739 45.359-96.888 104.351-102.8 23.862 18.907 54.167 29.247 86.112 29.247s62.25-10.34 86.112-29.245c58.992 5.91 104.351 50.059 104.351 102.8zm-190.463-245.625a117.188 117.188 0 1 0 -117.188-117.187 117.32 117.32 0 0 0 117.188 117.187zm0-202.375a85.188 85.188 0 1 1 -85.188 85.188 85.284 85.284 0 0 1 85.188-85.188z"/></svg>